#!OML:ASF E:\CV Data\Top Level 1\Subject 1\Session 1\player.ASF
:FULLY-SPECIFIED
:DEGREES
583
root -2.18194 17.0004 7.23426 -181.799 -166.137 175.24
lowerback 11.7921 0.173817 0.528285
upperback -0.25223 0.535999 3.41167
thorax -6.9275 0.303952 3.21786
lowerneck -19.5513 -5.40291 -10.6729
upperneck 18.2697 -6.47567 9.48971
head 9.68035 -2.72842 4.15826
rclavicle 2.29348e-014 -2.34566e-014
rhumerus 322.698 46.7972 254.49
rradius 83.6561
rwrist -4.61224
rhand -25.5864 13.6576
rfingers 7.12502
rthumb 0.945203 -16.3201
lclavicle 2.29348e-014 -2.34566e-014
lhumerus -36.4505 -27.6012 105.485
lradius 85.5833
lwrist 22.9554
lhand -15.9092 28.5978
lfingers 7.12502
lthumb 10.2878 58.3262
rfemur -17.3535 7.57956 15.5565
rtibia 45.3857
rfoot -19.5816 -3.22038
rtoes -10.8094
lfemur -8.79468 -2.57826 -1.04221
ltibia 55.7491
lfoot -9.82503 -22.3839
ltoes -21.2397
584
root -2.12272 16.9877 7.1796 -181.796 -165.362 175.37
lowerback 11.7257 0.104484 0.422675
upperback -0.295939 0.433641 3.48989
thorax -6.9328 0.259251 3.37938
lowerneck -19.6561 -5.11941 -10.4449
upperneck 18.5126 -6.09462 9.232
head 9.72411 -2.5615 4.08948
rclavicle -2.89977e-014 2.14687e-014
rhumerus 322.632 46.6301 254.98
rradius 83.8938
rwrist -4.9656
rhand -25.4462 13.5383
rfingers 7.12502
rthumb 1.08058 -16.4387
lclavicle -2.89977e-014 2.14687e-014
lhumerus -36.7077 -28.0801 105.827
lradius 85.6724
lwrist 22.8537
lhand -15.9178 28.5106
lfingers 7.12502
lthumb 10.2795 58.2394
rfemur -17.8356 7.8402 15.2327
rtibia 45.4209
rfoot -19.4528 -2.80281
rtoes -10.6061
lfemur -7.87797 -2.8736 -1.54228
ltibia 55.5933
lfoot -8.66655 -24.0086
ltoes -20.0404
585
root -2.0606 16.974 7.12616 -181.787 -164.635 175.492
lowerback 11.6368 0.0259655 0.344002
upperback -0.339874 0.321816 3.56141
thorax -6.92416 0.20875 3.51975
lowerneck -19.7316 -4.84297 -10.2217
upperneck 18.745 -5.72521 8.97989
head 9.7627 -2.40085 4.02153
rclavicle -3.11843e-015 -4.37326e-015
rhumerus 322.567 46.4287 255.492
rradius 84.1262
rwrist -5.33257
rhand -25.2672 13.4324
rfingers 7.12502
rthumb 1.25352 -16.5436
lclavicle -3.11843e-015 -4.37326e-015
lhumerus -36.9219 -28.5512 106.172
lradius 85.7279
lwrist 22.7257
lhand -15.9869 28.4184
lfingers 7.12502
lthumb 10.2128 58.1505
rfemur -18.3176 8.07759 14.904
rtibia 45.4488
rfoot -19.3301 -2.39058
rtoes -10.3927
lfemur -6.98824 -3.21904 -2.08713
ltibia 55.313
lfoot -7.30496 -25.6153
ltoes -18.4243
586
root -1.99594 16.9591 7.07327 -181.767 -163.949 175.606
lowerback 11.5269 -0.0579433 0.289369
upperback -0.381988 0.205007 3.62448
thorax -6.90055 0.154635 3.63775
lowerneck -19.7865 -4.57561 -10.0032
upperneck 18.9637 -5.37174 8.74418
head 9.79713 -2.24692 3.95751
rclavicle -5.03298e-014 1.59028e-015
rhumerus 322.515 46.1881 256.026
rradius 84.3529
rwrist -5.71592
rhand -25.0573 13.3505
rfingers 7.12502
rthumb 1.45622 -16.6243
lclavicle -5.03298e-014 1.59028e-015
lhumerus -37.092 -29.0179 106.514
lradius 85.7552
lwrist 22.5809
lhand -16.1104 28.3189
lfingers 7.12502
lthumb 10.0936 58.0568
rfemur -18.8069 8.29742 14.5733
rtibia 45.4716
rfoot -19.2109 -1.98672
rtoes -10.1732
lfemur -6.12477 -3.60381 -2.67256
ltibia 54.8991
lfoot -5.77331 -27.1739
ltoes -16.3764
587
root -1.92867 16.9429 7.02091 -181.741 -163.291 175.711
lowerback 11.3994 -0.142599 0.26033
upperback -0.42047 0.0895245 3.67827
thorax -6.8625 0.0998692 3.73037
lowerneck -19.8275 -4.31674 -9.79647
upperneck 19.1757 -5.03313 8.53386
head 9.83122 -2.09848 3.9021
rclavicle -1.75924e-014 -5.1684e-015
rhumerus 322.479 45.912 256.575
rradius 84.5732
rwrist -6.13827
rhand -24.827 13.2738
rfingers 7.12502
rthumb 1.67863 -16.6993
lclavicle -1.75924e-014 -5.1684e-015
lhumerus -37.2244 -29.4886 106.858
lradius 85.7456
lwrist 22.3845
lhand -16.29 28.1828
lfingers 7.12502
lthumb 9.92042 57.9291
rfemur -19.304 8.50731 14.2397
rtibia 45.4956
rfoot -19.0971 -1.58662
rtoes -9.94998
lfemur -5.27776 -4.01656 -3.30028
ltibia 54.3478
lfoot -4.08385 -28.6366
ltoes -13.7848
